P3
# Created by GIMP version 2.10.38 PNM plug-in
24 16
255
157
0
255
157
0
255
157
0
255
157
0
255
157
0
255
157
0
255
157
0
255
157
0
255
157
0
255
157
0
255
157
0
255
157
0
255
157
0
255
157
0
255
157
0
255
157
0
255
157
0
255
157
0
255
157
0
255
157
0
255
157
0
255
157
0
255
157
0
255
157
0
255
157
0
255
157
0
255
157
0
255
157
0
255
157
0
255
157
0
255
157
0
255
157
0
255
157
0
255
157
0
255
157
0
255
157
0
255
157
0
255
157
0
255
157
0
255
157
0
255
157
0
255
157
0
255
157
0
255
157
0
255
157
0
255
157
0
255
157
0
255
157
0
255
157
0
255
157
0
255
157
0
255
157
0
255
157
0
255
157
0
255
157
0
255
157
0
255
157
0
255
157
0
255
157
0
255
157
0
255
157
0
255
157
0
255
157
0
255
157
0
255
157
0
255
157
0
255
157
0
255
157
0
255
157
0
255
157
0
255
157
0
255
157
0
255
157
0
255
157
0
255
157
0
255
157
0
255
157
0
255
157
0
255
157
0
255
0
90
6
0
90
6
157
0
255
157
0
255
157
0
255
157
0
255
157
0
255
157
0
255
157
0
255
157
0
255
169
123
73
169
123
73
169
123
73
157
0
255
157
0
255
157
0
255
157
0
255
157
0
255
157
0
255
157
0
255
157
0
255
157
0
255
0
90
6
0
90
6
134
228
32
134
228
32
0
90
6
0
90
6
0
90
6
157
0
255
157
0
255
157
0
255
157
0
255
169
123
73
238
196
129
238
196
129
238
196
129
169
123
73
157
0
255
157
0
255
157
0
255
157
0
255
157
0
255
157
0
255
0
90
6
0
90
6
94
177
31
134
228
32
134
228
32
134
228
32
134
228
32
94
177
31
94
177
31
0
90
6
0
90
6
157
0
255
169
123
73
238
196
129
238
196
129
255
255
255
238
196
129
238
196
129
169
123
73
157
0
255
157
0
255
157
0
255
157
0
255
0
90
6
94
177
31
134
228
32
134
228
32
94
177
31
134
228
32
134
228
32
94
177
31
134
228
32
134
228
32
94
177
31
134
228
32
0
90
6
238
196
129
238
196
129
0
90
6
255
255
255
238
196
129
238
196
129
238
196
129
169
123
73
157
0
255
157
0
255
0
90
6
94
177
31
134
228
32
134
228
32
134
228
32
134
228
32
94
177
31
94
177
31
134
228
32
134
228
32
134
228
32
0
90
6
134
228
32
0
90
6
238
196
129
238
196
129
169
123
73
0
90
6
238
196
129
238
196
129
238
196
129
169
123
73
157
0
255
0
90
6
134
228
32
0
90
6
94
177
31
134
228
32
134
228
32
94
177
31
134
228
32
134
228
32
94
177
31
134
228
32
134
228
32
0
90
6
94
177
31
0
90
6
238
196
129
238
196
129
238
196
129
238
196
129
169
123
73
238
196
129
169
123
73
157
0
255
157
0
255
0
90
6
94
177
31
0
90
6
0
90
6
94
177
31
94
177
31
134
228
32
134
228
32
134
228
32
134
228
32
94
177
31
0
90
6
134
228
32
0
90
6
238
196
129
169
123
73
238
196
129
238
196
129
238
196
129
238
196
129
169
123
73
157
0
255
157
0
255
157
0
255
169
123
73
0
90
6
134
228
32
94
177
31
0
90
6
0
90
6
94
177
31
134
228
32
134
228
32
94
177
31
0
90
6
134
228
32
94
177
31
0
90
6
169
123
73
157
0
255
169
123
73
169
123
73
169
123
73
169
123
73
157
0
255
157
0
255
157
0
255
157
0
255
169
123
73
238
196
129
0
90
6
0
90
6
94
177
31
134
228
32
0
90
6
0
90
6
0
90
6
0
90
6
134
228
32
0
90
6
0
90
6
238
196
129
169
123
73
157
0
255
157
0
255
157
0
255
157
0
255
157
0
255
157
0
255
157
0
255
157
0
255
157
0
255
157
0
255
169
123
73
238
196
129
238
196
129
0
90
6
0
90
6
134
228
32
134
228
32
94
177
31
134
228
32
0
90
6
238
196
129
238
196
129
169
123
73
238
196
129
169
123
73
157
0
255
157
0
255
157
0
255
157
0
255
157
0
255
157
0
255
157
0
255
157
0
255
169
123
73
238
196
129
238
196
129
238
196
129
169
123
73
238
196
129
0
90
6
0
90
6
0
90
6
0
90
6
238
196
129
169
123
73
169
123
73
169
123
73
169
123
73
238
196
129
169
123
73
157
0
255
157
0
255
157
0
255
157
0
255
157
0
255
157
0
255
157
0
255
169
123
73
238
196
129
169
123
73
169
123
73
157
0
255
169
123
73
169
123
73
169
123
73
169
123
73
169
123
73
238
196
129
238
196
129
238
196
129
238
196
129
238
196
129
238
196
129
169
123
73
157
0
255
157
0
255
157
0
255
157
0
255
157
0
255
157
0
255
157
0
255
169
123
73
169
123
73
157
0
255
157
0
255
157
0
255
157
0
255
157
0
255
157
0
255
157
0
255
157
0
255
169
123
73
169
123
73
169
123
73
169
123
73
169
123
73
169
123
73
157
0
255
157
0
255
157
0
255
157
0
255
157
0
255
157
0
255
157
0
255
157
0
255
